<?xml version="1.0" encoding="UTF-8"?>
<svg id="Ebene_1" xmlns="http://www.w3.org/2000/svg" version="1.1" viewBox="0 0 490 490">
  <!-- Generator: Adobe Illustrator 29.4.0, SVG Export Plug-In . SVG Version: 2.1.0 Build 152)  -->
  <defs>
    <style>
      .st0 {
        fill: #3dd98f;
      }

      .st1 {
        fill: #0c1830;
      }
    </style>
  </defs>
  <path class="st1" d="M389.5,473.1h-74v-126.4l40-40h26.9c-.6-2.3-1-4.7-1-7.2s.4-5.2,1.1-7.6h-30.1c-2,0-3.9.8-5.2,2.2l-44.4,44.4c-1.4,1.4-2.2,3.3-2.2,5.2v129.4h-14.8v-137.5l53.3-53.3c1.4-1.4,2.2-3.3,2.2-5.2v-34.1c-2.4.7-4.9,1.1-7.5,1.1s-5-.4-7.3-1.1v31l-5.5,5.5-57-57.1v-24.2c.5-.3.9-.6,1.3-1l45.9-45.9h19.6c-.7-2.4-1.1-5-1.1-7.6s.4-4.9,1-7.2h-22.5c-2,0-3.8.8-5.2,2.2l-38.9,38.9v-34.3c-2.3.7-4.8,1.1-7.4,1.1s-5.1-.4-7.4-1.1v82.3c0,2,.8,3.8,2.2,5.2l59.2,59.2-37.3,37.3c-1.4,1.4-2.2,3.3-2.2,5.2v140.5h-18.5v-195.6c0-2-.8-3.8-2.2-5.2l-31.3-31.3v-54.7c.2-1,.2-2.1,0-3.1v-117.7c-2.3.7-4.7,1-7.3,1s-5.1-.4-7.5-1.1v101.3l-35.3-35.3c-1.4-1.4-3.3-2.2-5.2-2.2h-22.5c.7,2.3,1,4.8,1,7.3s-.4,5.1-1.1,7.5h19.5l43.6,43.6v56.4c0,2,.8,3.8,2.2,5.2l31.3,31.3v192.6h-18.5v-140.5c0-2-.8-3.8-2.2-5.2l-53.3-53.3v-30.9c-2.2.6-4.4.9-6.8.9s-5.5-.4-8-1.2v34.3c0,2,.8,3.8,2.2,5.2l53.3,53.3v137.5h-14.8v-129.4c0-2-.8-3.8-2.2-5.2l-44.4-44.4c-1.4-1.4-3.3-2.2-5.2-2.2h-30.7c0,0,0-.1,0-.2,0,0,0,0,0,0,.8,2.5,1.2,5.1,1.2,7.8s-.4,4.9-1,7.2h27.6l40,40v126.4h-73.9c-4.1,0-7.4,3.3-7.4,7.4s3.3,7.4,7.4,7.4h288.5c4.1,0,7.4-3.3,7.4-7.4s-3.3-7.4-7.4-7.4h0Z"/>
  <circle class="st0" cx="69.3" cy="299.5" r="26.2"/>
  <circle class="st0" cx="420.7" cy="299.5" r="26.2"/>
  <circle class="st0" cx="157.2" cy="205.9" r="26.2"/>
  <circle class="st0" cx="103.3" cy="136.6" r="26.2"/>
  <circle class="st0" cx="368.9" cy="143.8" r="26.2"/>
  <circle class="st0" cx="256.7" cy="106.3" r="26.2"/>
  <circle class="st0" cx="212" cy="28.3" r="26.2"/>
  <circle class="st0" cx="334" cy="205.9" r="26.2"/>
</svg>