<?xml version="1.0" encoding="UTF-8"?>
<svg id="Ebene_1" data-name="Ebene 1" xmlns="http://www.w3.org/2000/svg" viewBox="0 0 2000 870.48">
  <defs>
    <style>
      .cls-1 {
        fill: #0c1830;
      }

      .cls-2 {
        fill: #3dd98f;
        fill-rule: evenodd;
      }
    </style>
  </defs>
  <g>
    <path class="cls-1" d="M262.04,510.87c-11.71-11.71-17.56-28.06-17.56-49.06s4.46-41.1,13.4-58.85c8.93-17.74,21.18-31.74,36.76-42,15.57-10.26,32.77-15.39,51.6-15.39s34.28,7.37,44.9,22.09l3.26-18.47h45.99l-22.45,126.38c-.97,5.8-1.45,11.47-1.45,17.02,0,7.01,1.33,13.89,3.99,20.64l-41.28,15.21c-3.14-4.35-5.31-8.63-6.52-12.86-1.21-4.22-1.57-8.99-1.09-14.3h-.72c-8.46,8.69-17.93,15.39-28.43,20.1-10.5,4.71-21.55,7.06-33.13,7.06-19.8,0-35.55-5.85-47.26-17.56ZM360.35,476.65c8.93-9.17,14.61-21.24,17.02-36.21l1.09-6.52c.72-4.35,1.09-8.45,1.09-12.31,0-11.35-2.78-20.52-8.33-27.52-5.56-7-14-10.5-25.35-10.5-9.9,0-18.95,3.14-27.16,9.42-8.21,6.28-14.61,14.91-19.19,25.89-4.59,10.99-6.88,23.24-6.88,36.76,0,11.1,2.77,19.68,8.33,25.71,5.55,6.04,13.76,9.05,24.62,9.05,14.24,0,25.83-4.58,34.76-13.76Z"/>
    <path class="cls-1" d="M488.91,349.18h47.8l-31.14,175.63h-47.8l31.14-175.63ZM496.15,322.39c-5.07-4.58-7.6-10.62-7.6-18.11,0-10.14,3.74-18.77,11.22-25.89,7.48-7.12,16.54-10.68,27.16-10.68,8.2,0,14.9,2.3,20.1,6.88,5.19,4.59,7.79,10.63,7.79,18.11,0,9.9-3.8,18.47-11.41,25.71-7.6,7.24-16.72,10.86-27.34,10.86-8.21,0-14.85-2.29-19.92-6.88Z"/>
    <path class="cls-1" d="M566.4,402.42h163.68l-6.88,38.38h-163.68l6.88-38.38Z"/>
    <path class="cls-1" d="M768.45,509.78c-14-12.43-21-29.63-21-51.6s4.65-40.13,13.94-57.4c9.29-17.26,22.03-30.78,38.2-40.56,16.17-9.78,34.28-14.66,54.32-14.66,24.14,0,42.73,6.4,55.77,19.19,13.04,12.8,19.55,29.45,19.55,49.97,0,15.21-3.02,26.01-9.05,32.41-6.04,6.4-14.73,9.6-26.07,9.6h-100.67c-.24,1.21-.36,2.9-.36,5.07,0,8.45,3.74,15.21,11.22,20.28,7.48,5.07,17.38,7.6,29.7,7.6,21.24,0,38.86-6.28,52.87-18.83l19.55,25.35c-9.9,10.14-21.55,18.05-34.94,23.72-13.4,5.67-28.19,8.51-44.36,8.51-25.11,0-44.66-6.21-58.66-18.65ZM882.52,419.43c.48-2.9.72-5.07.72-6.52,0-8.93-3.32-16.05-9.96-21.37-6.64-5.31-15.27-7.97-25.89-7.97-11.59,0-21.91,3.32-30.96,9.96-9.05,6.64-14.55,15.27-16.48,25.89h82.56Z"/>
    <path class="cls-1" d="M992.24,433.92l-40.56-84.73h53.59l23.54,55.77,43.82-55.77h53.59l-70.97,84.73,39.83,90.89h-54.32l-22.45-59.75-43.45,59.75h-54.32l71.7-90.89Z"/>
    <path class="cls-1" d="M1151.93,397.71c1.2-7.24,1.81-12.91,1.81-17.02,0-7.48-1.45-14.48-4.35-21l41.28-15.21c5.79,8.21,8.33,17.38,7.6,27.52,18.83-18.11,39.83-27.16,63.01-27.16,19.79,0,35.6,6.04,47.44,18.11,11.83,12.07,17.75,28.85,17.75,50.33s-4.35,40.98-13.04,58.48c-8.69,17.5-20.7,31.2-36.03,41.1-15.33,9.9-32.41,14.85-51.24,14.85-10.14,0-19.14-1.87-26.98-5.61-7.85-3.74-14.19-8.87-19.01-15.39l-17.02,97.41h-47.8l36.57-206.41ZM1263.28,470.31c9.78-12.91,14.67-29.87,14.67-50.88,0-11.59-2.78-20.58-8.33-26.98-5.56-6.39-13.76-9.59-24.62-9.59-14.25,0-25.89,4.53-34.94,13.58s-14.91,21.18-17.56,36.39l-1.09,6.52c-.73,3.87-1.09,7.85-1.09,11.95,0,11.35,2.84,20.59,8.51,27.7,5.67,7.12,14.3,10.68,25.89,10.68,15.93,0,28.79-6.46,38.56-19.37Z"/>
    <path class="cls-1" d="M1368.48,509.78c-14-12.43-21-29.63-21-51.6s4.65-40.13,13.94-57.4c9.29-17.26,22.03-30.78,38.2-40.56,16.17-9.78,34.28-14.66,54.32-14.66,24.14,0,42.73,6.4,55.77,19.19,13.04,12.8,19.55,29.45,19.55,49.97,0,15.21-3.02,26.01-9.05,32.41-6.04,6.4-14.73,9.6-26.07,9.6h-100.67c-.24,1.21-.36,2.9-.36,5.07,0,8.45,3.74,15.21,11.22,20.28,7.48,5.07,17.38,7.6,29.7,7.6,21.24,0,38.86-6.28,52.87-18.83l19.55,25.35c-9.9,10.14-21.55,18.05-34.94,23.72-13.4,5.67-28.19,8.51-44.36,8.51-25.11,0-44.66-6.21-58.66-18.65ZM1482.54,419.43c.48-2.9.72-5.07.72-6.52,0-8.93-3.32-16.05-9.96-21.37-6.64-5.31-15.27-7.97-25.89-7.97-11.59,0-21.91,3.32-30.96,9.96-9.05,6.64-14.55,15.27-16.48,25.89h82.56Z"/>
    <path class="cls-1" d="M1567.28,398.43c.96-5.07,1.45-10.38,1.45-15.93,0-6.28-1.09-13.16-3.26-20.64l45.26-16.29c1.2,2.9,2.29,6.52,3.26,10.86.96,4.35,1.45,8.33,1.45,11.95,0,2.17-.12,3.75-.36,4.71,7.97-9.17,15.87-16.05,23.72-20.64,7.84-4.58,16.48-6.88,25.89-6.88,7,0,13.16.97,18.47,2.9,5.31,1.94,10.5,5.2,15.57,9.78l-23.54,32.95c-3.86-2.65-7.37-4.46-10.5-5.43-3.14-.96-6.76-1.45-10.86-1.45-13.04,0-23.05,4.04-30.06,12.13-7,8.09-11.83,19.62-14.48,34.58l-16.66,93.79h-47.8l22.45-126.38Z"/>
    <path class="cls-1" d="M1726.06,517.75c-7.6-6.88-11.41-16.84-11.41-29.88,0-2.9.48-7.72,1.45-14.48l15.21-85.82h-32.23l17.02-38.38h22.81l6.16-36.57,50.33-21.37-10.14,57.94h47.08l-16.29,38.38h-36.94l-15.21,86.91c-.24,1.21-.36,2.9-.36,5.07,0,3.86,1.03,6.58,3.08,8.15,2.05,1.57,5.13,2.36,9.23,2.36,6.28,0,11.95-1.2,17.02-3.62l5.07,34.4c-4.35,1.93-10.2,3.62-17.56,5.07-7.37,1.45-14.3,2.17-20.82,2.17-14.73,0-25.89-3.44-33.5-10.32Z"/>
    <path class="cls-1" d="M1863.84,519.2c-14-6.16-25.71-15.03-35.12-26.62l31.87-28.61c6.75,8.93,14.97,15.63,24.62,20.1,9.65,4.47,20.28,6.7,31.87,6.7,7.72,0,13.88-1.39,18.47-4.16,4.58-2.77,6.88-6.82,6.88-12.13,0-3.38-2.17-6.46-6.52-9.23-4.35-2.77-13.28-6.46-26.8-11.04-19.8-6.52-34.04-13.58-42.73-21.18s-13.04-16.96-13.04-28.07c0-18.34,7.3-32.83,21.91-43.45,14.6-10.62,34.46-15.93,59.57-15.93s47.31,7.24,65.18,21.73l-21.73,31.14c-9.42-5.79-17.99-9.78-25.71-11.95-7.73-2.17-16.06-3.26-24.99-3.26-8.45,0-14.85,1.27-19.19,3.8s-6.52,6.1-6.52,10.68c0,3.62,2.17,6.7,6.52,9.23,4.35,2.53,13.27,5.97,26.8,10.32,20.04,6.28,34.34,13.22,42.91,20.82,8.57,7.6,12.86,17.2,12.86,28.79,0,18.83-7.3,33.8-21.91,44.9-14.61,11.1-34.1,16.66-58.48,16.66-17.15,0-32.72-3.08-46.72-9.23Z"/>
  </g>
  <g>
    <g>
      <path class="cls-2" d="M580.92,117.92c-1.6-.43-3.22-.81-4.86-1.13-.26-.05-.51-.1-.77-.15h-.08s-.11-.03-.11-.03c-.16-.03-.34-.06-.7-.13l-.12-.02c-2.61-.49-2.61-4.24,0-4.73l.12-.02c.36-.06.53-.1.7-.13l.11-.02h.08c.26-.06.51-.11.77-.16,1.64-.32,3.26-.7,4.86-1.13,1.37-.37,2.71-.77,4.05-1.22,21.55-7.18,38.5-24.14,45.68-45.68.44-1.33.85-2.68,1.22-4.05.43-1.6.81-3.22,1.13-4.86.05-.26.1-.51.15-.77v-.08s.03-.11.03-.11c.03-.16.06-.34.12-.69h0s.02-.14.02-.14c.49-2.61,4.24-2.61,4.73,0l.02.12c.06.36.1.53.13.7l.02.11v.08c.06.26.11.51.16.77.32,1.64.7,3.26,1.13,4.86.37,1.37.77,2.71,1.22,4.05,7.18,21.55,24.14,38.5,45.68,45.68,1.33.44,2.68.85,4.05,1.22,1.6.43,3.22.81,4.86,1.13.26.05.51.1.77.15h.08s.11.03.11.03c.16.03.34.06.7.13l.12.02c2.61.49,2.61,4.24,0,4.73l-.12.02-.38.07-.32.06-.11.02h-.08c-.26.06-.51.11-.77.16-1.64.32-3.26.7-4.86,1.13-1.37.37-2.71.77-4.05,1.22-21.55,7.18-38.5,24.14-45.68,45.68-.44,1.33-.85,2.68-1.22,4.05-.43,1.6-.81,3.22-1.13,4.86-.05.26-.1.51-.15.77v.08s-.03.11-.03.11l-.04.24-.08.45-.02.14c-.49,2.61-4.24,2.61-4.73,0l-.02-.12c-.06-.36-.1-.54-.13-.7l-.02-.11v-.08c-.06-.26-.11-.51-.16-.77-.32-1.64-.7-3.26-1.13-4.86-.37-1.37-.77-2.71-1.22-4.05-7.18-21.55-24.14-38.5-45.68-45.68-1.33-.44-2.68-.85-4.05-1.22Z"/>
      <path class="cls-2" d="M201.48,117.92c-1.6-.43-3.22-.81-4.86-1.13-.26-.05-.51-.1-.77-.15h-.08s-.11-.03-.11-.03c-.16-.03-.34-.06-.7-.13l-.12-.02c-2.61-.49-2.61-4.24,0-4.73l.12-.02c.36-.06.53-.1.7-.13l.11-.02h.08c.26-.06.51-.11.77-.16,1.64-.32,3.26-.7,4.86-1.13,1.37-.37,2.71-.77,4.05-1.22,21.55-7.18,38.5-24.14,45.68-45.68.44-1.33.85-2.68,1.22-4.05.43-1.6.81-3.22,1.13-4.86.05-.26.1-.51.15-.77v-.08s.03-.11.03-.11c.03-.16.06-.34.12-.69h0s.02-.14.02-.14c.49-2.61,4.24-2.61,4.73,0l.02.12c.06.36.1.53.13.7l.02.11v.08c.06.26.11.51.16.77.32,1.64.7,3.26,1.13,4.86.37,1.37.77,2.71,1.22,4.05,7.18,21.55,24.14,38.5,45.68,45.68,1.33.44,2.68.85,4.05,1.22,1.6.43,3.22.81,4.86,1.13.26.05.51.1.77.15h.08s.11.03.11.03c.16.03.34.06.7.13l.12.02c2.61.49,2.61,4.24,0,4.73l-.12.02-.38.07-.32.06-.11.02h-.08c-.26.06-.51.11-.77.16-1.64.32-3.26.7-4.86,1.13-1.37.37-2.71.77-4.05,1.22-21.55,7.18-38.5,24.14-45.68,45.68-.44,1.33-.85,2.68-1.22,4.05-.43,1.6-.81,3.22-1.13,4.86-.05.26-.1.51-.15.77v.08s-.03.11-.03.11l-.04.24-.08.45-.02.14c-.49,2.61-4.24,2.61-4.73,0l-.02-.12c-.06-.36-.1-.54-.13-.7l-.02-.11v-.08c-.06-.26-.11-.51-.16-.77-.32-1.64-.7-3.26-1.13-4.86-.37-1.37-.77-2.71-1.22-4.05-7.18-21.55-24.14-38.5-45.68-45.68-1.33-.44-2.68-.85-4.05-1.22Z"/>
    </g>
    <path class="cls-2" d="M59.57,253.13c-1.6-.43-3.22-.81-4.86-1.13-.26-.05-.51-.1-.77-.15h-.08s-.11-.03-.11-.03c-.16-.03-.34-.06-.7-.13l-.12-.02c-2.61-.49-2.61-4.24,0-4.73l.12-.02c.36-.06.53-.1.7-.13l.11-.02h.08c.26-.06.51-.11.77-.16,1.64-.32,3.26-.7,4.86-1.13,1.37-.37,2.71-.77,4.05-1.22,21.55-7.18,38.5-24.14,45.68-45.68.44-1.33.85-2.68,1.22-4.05.43-1.6.81-3.22,1.13-4.86.05-.26.1-.51.15-.77v-.08s.03-.11.03-.11c.03-.16.06-.34.12-.69h0s.02-.14.02-.14c.49-2.61,4.24-2.61,4.73,0l.02.12c.06.36.1.53.13.7l.02.11v.08c.06.26.11.51.16.77.32,1.64.7,3.26,1.13,4.86.37,1.37.77,2.71,1.22,4.05,7.18,21.55,24.14,38.5,45.68,45.68,1.33.44,2.68.85,4.05,1.22,1.6.43,3.22.81,4.86,1.13.26.05.51.1.77.15h.08s.11.03.11.03c.16.03.34.06.7.13l.12.02c2.61.49,2.61,4.24,0,4.73l-.12.02-.38.07-.32.06-.11.02h-.08c-.26.06-.51.11-.77.16-1.64.32-3.26.7-4.86,1.13-1.37.37-2.71.77-4.05,1.22-21.55,7.18-38.5,24.14-45.68,45.68-.44,1.33-.85,2.68-1.22,4.05-.43,1.6-.81,3.22-1.13,4.86-.05.26-.1.51-.15.77v.08s-.03.11-.03.11l-.04.24-.08.45-.02.14c-.49,2.61-4.24,2.61-4.73,0l-.02-.12c-.06-.36-.1-.54-.13-.7l-.02-.11v-.08c-.06-.26-.11-.51-.16-.77-.32-1.64-.7-3.26-1.13-4.86-.37-1.37-.77-2.71-1.22-4.05-7.18-21.55-24.14-38.5-45.68-45.68-1.33-.44-2.68-.85-4.05-1.22Z"/>
    <path class="cls-2" d="M391.5,67.2c-1.6-.43-3.22-.81-4.86-1.13-.26-.05-.51-.1-.77-.15h-.08s-.11-.03-.11-.03c-.16-.03-.34-.06-.7-.13l-.12-.02c-2.61-.49-2.61-4.24,0-4.73l.12-.02c.36-.06.53-.1.7-.13l.11-.02h.08c.26-.06.51-.11.77-.16,1.64-.32,3.26-.7,4.86-1.13,1.37-.37,2.71-.77,4.05-1.22,21.55-7.18,38.5-24.14,45.68-45.68.44-1.33.85-2.68,1.22-4.05.43-1.6.81-3.22,1.13-4.86.05-.26.1-.51.15-.77v-.08s.03-.11.03-.11c.03-.16.06-.34.12-.69h0s.02-.14.02-.14c.49-2.61,4.24-2.61,4.73,0l.02.12c.06.36.1.53.13.7l.02.11v.08c.06.26.11.51.16.77.32,1.64.7,3.26,1.13,4.86.37,1.37.77,2.71,1.22,4.05,7.18,21.55,24.14,38.5,45.68,45.68,1.33.44,2.68.85,4.05,1.22,1.6.43,3.22.81,4.86,1.13.26.05.51.1.77.15h.08s.11.03.11.03c.16.03.34.06.7.13l.12.02c2.61.49,2.61,4.24,0,4.73l-.12.02-.38.07-.32.06-.11.02h-.08c-.26.06-.51.11-.77.16-1.64.32-3.26.7-4.86,1.13-1.37.37-2.71.77-4.05,1.22-21.55,7.18-38.5,24.14-45.68,45.68-.44,1.33-.85,2.68-1.22,4.05-.43,1.6-.81,3.22-1.13,4.86-.05.26-.1.51-.15.77v.08s-.03.11-.03.11l-.04.24-.08.45-.02.14c-.49,2.61-4.24,2.61-4.73,0l-.02-.12c-.06-.36-.1-.54-.13-.7l-.02-.11v-.08c-.06-.26-.11-.51-.16-.77-.32-1.64-.7-3.26-1.13-4.86-.37-1.37-.77-2.71-1.22-4.05-7.18-21.55-24.14-38.5-45.68-45.68-1.33-.44-2.68-.85-4.05-1.22Z"/>
    <path class="cls-2" d="M8.6,431.41c-1.6.43-3.22.81-4.86,1.13-.26.05-.51.1-.77.15h-.08s-.11.03-.11.03c-.16.03-.34.06-.7.13l-.12.02c-2.61.49-2.61,4.24,0,4.73l.12.02c.36.06.53.1.7.13l.11.02h.08c.26.06.51.11.77.16,1.64.32,3.26.7,4.86,1.13,1.37.37,2.71.77,4.05,1.22,21.55,7.18,38.5,24.14,45.68,45.68.44,1.33.85,2.68,1.22,4.05.43,1.6.81,3.22,1.13,4.86.05.26.1.51.15.77v.08s.03.11.03.11c.03.16.06.34.12.69h0s.02.14.02.14c.49,2.61,4.24,2.61,4.73,0l.02-.12c.06-.36.1-.53.13-.7l.02-.11v-.08c.06-.26.11-.51.16-.77.32-1.64.7-3.26,1.13-4.86.37-1.37.77-2.71,1.22-4.05,7.18-21.55,24.14-38.5,45.68-45.68,1.33-.44,2.68-.85,4.05-1.22,1.6-.43,3.22-.81,4.86-1.13.26-.05.51-.1.77-.15h.08s.11-.03.11-.03c.16-.03.34-.06.7-.13l.12-.02c2.61-.49,2.61-4.24,0-4.73l-.12-.02-.38-.07-.32-.06-.11-.02h-.08c-.26-.06-.51-.11-.77-.16-1.64-.32-3.26-.7-4.86-1.13-1.37-.37-2.71-.77-4.05-1.22-21.55-7.18-38.5-24.14-45.68-45.68-.44-1.33-.85-2.68-1.22-4.05-.43-1.6-.81-3.22-1.13-4.86-.05-.26-.1-.51-.15-.77v-.08s-.03-.11-.03-.11l-.04-.24-.08-.45-.02-.14c-.49-2.61-4.24-2.61-4.73,0l-.02.12c-.06.36-.1.54-.13.7l-.02.11v.08c-.06.26-.11.51-.16.77-.32,1.64-.7,3.26-1.13,4.86-.37,1.37-.77,2.71-1.22,4.05-7.18,21.55-24.14,38.5-45.68,45.68-1.33.44-2.68.85-4.05,1.22Z"/>
    <g>
      <path class="cls-2" d="M580.92,752.56c-1.6.43-3.22.81-4.86,1.13-.26.05-.51.1-.77.15h-.08s-.11.03-.11.03c-.16.03-.34.06-.7.13l-.12.02c-2.61.49-2.61,4.24,0,4.73l.12.02c.36.06.53.1.7.13l.11.02h.08c.26.06.51.11.77.16,1.64.32,3.26.7,4.86,1.13,1.37.37,2.71.77,4.05,1.22,21.55,7.18,38.5,24.14,45.68,45.68.44,1.33.85,2.68,1.22,4.05.43,1.6.81,3.22,1.13,4.86.05.26.1.51.15.77v.08s.03.11.03.11c.03.16.06.34.12.69h0s.02.14.02.14c.49,2.61,4.24,2.61,4.73,0l.02-.12c.06-.36.1-.53.13-.7l.02-.11v-.08c.06-.26.11-.51.16-.77.32-1.64.7-3.26,1.13-4.86.37-1.37.77-2.71,1.22-4.05,7.18-21.55,24.14-38.5,45.68-45.68,1.33-.44,2.68-.85,4.05-1.22,1.6-.43,3.22-.81,4.86-1.13.26-.05.51-.1.77-.15h.08s.11-.03.11-.03c.16-.03.34-.06.7-.13l.12-.02c2.61-.49,2.61-4.24,0-4.73l-.12-.02-.38-.07-.32-.06-.11-.02h-.08c-.26-.06-.51-.11-.77-.16-1.64-.32-3.26-.7-4.86-1.13-1.37-.37-2.71-.77-4.05-1.22-21.55-7.18-38.5-24.14-45.68-45.68-.44-1.33-.85-2.68-1.22-4.05-.43-1.6-.81-3.22-1.13-4.86-.05-.26-.1-.51-.15-.77v-.08s-.03-.11-.03-.11l-.04-.24-.08-.45-.02-.14c-.49-2.61-4.24-2.61-4.73,0l-.02.12c-.06.36-.1.54-.13.7l-.02.11v.08c-.06.26-.11.51-.16.77-.32,1.64-.7,3.26-1.13,4.86-.37,1.37-.77,2.71-1.22,4.05-7.18,21.55-24.14,38.5-45.68,45.68-1.33.44-2.68.85-4.05,1.22Z"/>
      <path class="cls-2" d="M201.48,752.56c-1.6.43-3.22.81-4.86,1.13-.26.05-.51.1-.77.15h-.08s-.11.03-.11.03c-.16.03-.34.06-.7.13l-.12.02c-2.61.49-2.61,4.24,0,4.73l.12.02c.36.06.53.1.7.13l.11.02h.08c.26.06.51.11.77.16,1.64.32,3.26.7,4.86,1.13,1.37.37,2.71.77,4.05,1.22,21.55,7.18,38.5,24.14,45.68,45.68.44,1.33.85,2.68,1.22,4.05.43,1.6.81,3.22,1.13,4.86.05.26.1.51.15.77v.08s.03.11.03.11c.03.16.06.34.12.69h0s.02.14.02.14c.49,2.61,4.24,2.61,4.73,0l.02-.12c.06-.36.1-.53.13-.7l.02-.11v-.08c.06-.26.11-.51.16-.77.32-1.64.7-3.26,1.13-4.86.37-1.37.77-2.71,1.22-4.05,7.18-21.55,24.14-38.5,45.68-45.68,1.33-.44,2.68-.85,4.05-1.22,1.6-.43,3.22-.81,4.86-1.13.26-.05.51-.1.77-.15h.08s.11-.03.11-.03c.16-.03.34-.06.7-.13l.12-.02c2.61-.49,2.61-4.24,0-4.73l-.12-.02-.38-.07-.32-.06-.11-.02h-.08c-.26-.06-.51-.11-.77-.16-1.64-.32-3.26-.7-4.86-1.13-1.37-.37-2.71-.77-4.05-1.22-21.55-7.18-38.5-24.14-45.68-45.68-.44-1.33-.85-2.68-1.22-4.05-.43-1.6-.81-3.22-1.13-4.86-.05-.26-.1-.51-.15-.77v-.08s-.03-.11-.03-.11l-.04-.24-.08-.45-.02-.14c-.49-2.61-4.24-2.61-4.73,0l-.02.12c-.06.36-.1.54-.13.7l-.02.11v.08c-.06.26-.11.51-.16.77-.32,1.64-.7,3.26-1.13,4.86-.37,1.37-.77,2.71-1.22,4.05-7.18,21.55-24.14,38.5-45.68,45.68-1.33.44-2.68.85-4.05,1.22Z"/>
    </g>
    <path class="cls-2" d="M59.57,617.34c-1.6.43-3.22.81-4.86,1.13-.26.05-.51.1-.77.15h-.08s-.11.03-.11.03c-.16.03-.34.06-.7.13l-.12.02c-2.61.49-2.61,4.24,0,4.73l.12.02c.36.06.53.1.7.13l.11.02h.08c.26.06.51.11.77.16,1.64.32,3.26.7,4.86,1.13,1.37.37,2.71.77,4.05,1.22,21.55,7.18,38.5,24.14,45.68,45.68.44,1.33.85,2.68,1.22,4.05.43,1.6.81,3.22,1.13,4.86.05.26.1.51.15.77v.08s.03.11.03.11c.03.16.06.34.12.69h0s.02.14.02.14c.49,2.61,4.24,2.61,4.73,0l.02-.12c.06-.36.1-.53.13-.7l.02-.11v-.08c.06-.26.11-.51.16-.77.32-1.64.7-3.26,1.13-4.86.37-1.37.77-2.71,1.22-4.05,7.18-21.55,24.14-38.5,45.68-45.68,1.33-.44,2.68-.85,4.05-1.22,1.6-.43,3.22-.81,4.86-1.13.26-.05.51-.1.77-.15h.08s.11-.03.11-.03c.16-.03.34-.06.7-.13l.12-.02c2.61-.49,2.61-4.24,0-4.73l-.12-.02-.38-.07-.32-.06-.11-.02h-.08c-.26-.06-.51-.11-.77-.16-1.64-.32-3.26-.7-4.86-1.13-1.37-.37-2.71-.77-4.05-1.22-21.55-7.18-38.5-24.14-45.68-45.68-.44-1.33-.85-2.68-1.22-4.05-.43-1.6-.81-3.22-1.13-4.86-.05-.26-.1-.51-.15-.77v-.08s-.03-.11-.03-.11l-.04-.24-.08-.45-.02-.14c-.49-2.61-4.24-2.61-4.73,0l-.02.12c-.06.36-.1.54-.13.7l-.02.11v.08c-.06.26-.11.51-.16.77-.32,1.64-.7,3.26-1.13,4.86-.37,1.37-.77,2.71-1.22,4.05-7.18,21.55-24.14,38.5-45.68,45.68-1.33.44-2.68.85-4.05,1.22Z"/>
    <path class="cls-2" d="M391.5,803.28c-1.6.43-3.22.81-4.86,1.13-.26.05-.51.1-.77.15h-.08s-.11.03-.11.03c-.16.03-.34.06-.7.13l-.12.02c-2.61.49-2.61,4.24,0,4.73l.12.02c.36.06.53.1.7.13l.11.02h.08c.26.06.51.11.77.16,1.64.32,3.26.7,4.86,1.13,1.37.37,2.71.77,4.05,1.22,21.55,7.18,38.5,24.14,45.68,45.68.44,1.33.85,2.68,1.22,4.05.43,1.6.81,3.22,1.13,4.86.05.26.1.51.15.77v.08s.03.11.03.11c.03.16.06.34.12.69h0s.02.14.02.14c.49,2.61,4.24,2.61,4.73,0l.02-.12c.06-.36.1-.53.13-.7l.02-.11v-.08c.06-.26.11-.51.16-.77.32-1.64.7-3.26,1.13-4.86.37-1.37.77-2.71,1.22-4.05,7.18-21.55,24.14-38.5,45.68-45.68,1.33-.44,2.68-.85,4.05-1.22,1.6-.43,3.22-.81,4.86-1.13.26-.05.51-.1.77-.15h.08s.11-.03.11-.03c.16-.03.34-.06.7-.13l.12-.02c2.61-.49,2.61-4.24,0-4.73l-.12-.02-.38-.07-.32-.06-.11-.02h-.08c-.26-.06-.51-.11-.77-.16-1.64-.32-3.26-.7-4.86-1.13-1.37-.37-2.71-.77-4.05-1.22-21.55-7.18-38.5-24.14-45.68-45.68-.44-1.33-.85-2.68-1.22-4.05-.43-1.6-.81-3.22-1.13-4.86-.05-.26-.1-.51-.15-.77v-.08s-.03-.11-.03-.11l-.04-.24-.08-.45-.02-.14c-.49-2.61-4.24-2.61-4.73,0l-.02.12c-.06.36-.1.54-.13.7l-.02.11v.08c-.06.26-.11.51-.16.77-.32,1.64-.7,3.26-1.13,4.86-.37,1.37-.77,2.71-1.22,4.05-7.18,21.55-24.14,38.5-45.68,45.68-1.33.44-2.68.85-4.05,1.22Z"/>
  </g>
</svg>