<?xml version="1.0" encoding="UTF-8"?>
<svg id="Ebene_1" xmlns="http://www.w3.org/2000/svg" version="1.1" viewBox="0 0 490 490">
  <!-- Generator: Adobe Illustrator 29.4.0, SVG Export Plug-In . SVG Version: 2.1.0 Build 152)  -->
  <defs>
    <style>
      .st0 {
        fill: #3dd98f;
      }

      .st1 {
        fill: #0c1830;
        fill-rule: evenodd;
      }
    </style>
  </defs>
  <path class="st0" d="M244.5,176.1c-8,.1-14.3,6.7-14.2,14.6v61.3l-74.2,63.9c-6.2,5.1-7.1,14.2-2,20.4,5.1,6.2,14.2,7.1,20.4,2,.2-.1.4-.3.5-.5l69.7-60.1,69.8,60.1c5.7,5.6,14.8,5.6,20.5,0s5.6-14.8,0-20.5c-.5-.5-1.1-1-1.6-1.4l-74-63.9v-61.3c0-8-6.3-14.6-14.3-14.6h-.4Z"/>
  <g>
    <path class="st1" d="M245,2.1c13.7,0,24.9,7.8,24.9,25.9s-11.1,32.7-24.9,32.7-24.9-14.6-24.9-32.7,11.1-25.9,24.9-25.9"/>
    <path class="st1" d="M197.6,142.8h10.4v-37.9c0-3.8,3.2-6.7,6.9-6.7,3.6,0,6.6,3,6.7,6.7v37.9h46.7v-37.9c0-3.8,3.2-6.7,6.9-6.7,3.6,0,6.6,3,6.7,6.7v37.9h10.4c4.4,0,7.9-3.6,7.9-7.9v-42.3c0-12.3-11-19.3-23.4-22.4-20.9-5.4-42.8-5.4-63.7,0-12.4,3.2-23.4,10.1-23.4,22.4v42.3c0,4.4,3.6,7.9,7.9,7.9"/>
  </g>
  <g>
    <g>
      <path class="st1" d="M79.5,288.8c13.7,0,24.9,7.8,24.9,25.9s-11.2,32.7-24.9,32.7-24.9-14.6-24.9-32.7,11.2-25.9,24.9-25.9"/>
      <path class="st1" d="M32.2,429.6h10.4v-37.9c0-3.8,3.2-6.7,6.9-6.7,3.7,0,6.6,3,6.7,6.7v37.9h46.7v-37.9c0-3.8,3.2-6.7,6.9-6.7,3.7,0,6.6,3,6.7,6.7v37.9h10.4c4.4,0,7.9-3.5,7.9-7.9v-42.3c0-12.3-11-19.3-23.4-22.4-20.9-5.4-42.8-5.4-63.7,0-12.4,3.2-23.4,10.1-23.4,22.4v42.3c0,4.4,3.6,7.9,7.9,7.9"/>
    </g>
    <g>
      <path class="st1" d="M410.5,288.8c13.7,0,24.9,7.8,24.9,25.9s-11.1,32.7-24.9,32.7-24.9-14.6-24.9-32.7,11.1-25.9,24.9-25.9"/>
      <path class="st1" d="M363.1,429.6h10.4v-37.9c0-3.8,3.2-6.7,6.9-6.7,3.6,0,6.6,3,6.7,6.7v37.9h46.7v-37.9c0-3.8,3.2-6.7,6.9-6.7,3.6,0,6.6,3,6.7,6.7v37.9h10.4c4.4,0,7.9-3.5,7.9-7.9v-42.3c0-12.3-11-19.3-23.4-22.4-20.9-5.4-42.8-5.4-63.7,0-12.4,3.2-23.4,10.1-23.4,22.4v42.3c0,4.4,3.6,7.9,7.9,7.9"/>
    </g>
  </g>
</svg>