<?xml version="1.0" encoding="UTF-8"?>
<svg id="Ebene_1" xmlns="http://www.w3.org/2000/svg" version="1.1" viewBox="0 0 490 490">
  <!-- Generator: Adobe Illustrator 29.4.0, SVG Export Plug-In . SVG Version: 2.1.0 Build 152)  -->
  <defs>
    <style>
      .st0 {
        fill: #0c1830;
      }

      .st0, .st1 {
        fill-rule: evenodd;
      }

      .st1 {
        fill: #3dd98f;
      }
    </style>
  </defs>
  <path id="Pfad_30" class="st0" d="M346.7,438.3c1.7,0,3-1.3,3-3,.2-11,5.5-21.3,14.5-27.7,11.5-8.8,20.9-15.5,28.7-21.1,16.1-11.5,25.2-18.1,30.3-26.2,6.8-10.9,9.6-26.8,9.9-63.9l.8-101.1c0-8.6-21.1-8.3-21.3.3v64.9c-.1.6,0,1.1.3,1.6,4.5,7.2,4.3,16.5-.5,23.5l-33.2,52.8c-2.3,3.4-6.8,4.5-10.4,2.5-3.3-1.6-4.7-5.6-3.1-8.9.1-.2.2-.4.4-.6l33.2-52.8c7.7-12.2-14.3-23.7-22-11.6l-22.2,35.2c-.7,1.2-1.8,2.1-3,2.7l-35.5,21.1c-16.9,10-26.2,25.7-26.2,44.2v65.1c0,1.7,1.4,3,3,3h53.2,0ZM143.3,438.3h53.2c1.7,0,3-1.4,3.1-3v-65.1c0-18.5-9.3-34.2-26.2-44.2l-35.5-21.1c-1.2-.6-2.3-1.5-3.1-2.7l-22.2-35.2c-7.6-12.1-29.6-.6-21.9,11.6l33.2,52.8c1.9,3.1,1,7.2-2.1,9.2-.2.1-.4.2-.6.4-3.6,1.9-8.1.8-10.4-2.5l-33.2-52.8c-4.9-7-5.1-16.3-.6-23.5.3-.5.5-1,.4-1.6v-64.9c-.3-8.6-21.5-8.9-21.4-.3l.8,101.1c.3,37.1,3.1,53,9.9,63.9,5.1,8.1,14.2,14.7,30.3,26.2,7.8,5.6,17.2,12.3,28.7,21.1,8.9,6.4,14.3,16.7,14.5,27.7,0,1.7,1.4,3,3,3h0Z"/>
  <g>
    <path class="st1" d="M200.3,86c-1.3-.3-2.6-.7-4-.9-.2,0-.4,0-.6-.1h-.1s-.6-.1-.6-.1h-.1c-1.1-.2-1.8-1.2-1.6-2.3.1-.8.8-1.4,1.6-1.6h.1s.6-.1.6-.1h0s0,0,0,0h.6c1.3-.4,2.7-.7,4-1.1,1.1-.3,2.2-.6,3.3-1,17.6-5.9,31.4-19.7,37.3-37.3.4-1.1.7-2.2,1-3.3.4-1.3.7-2.6.9-4,0-.2,0-.4.1-.6h0c0,0,0-.2,0-.2,0-.1,0-.3.1-.6h0c.2-1.2,1.2-1.9,2.3-1.7.8.1,1.4.8,1.6,1.6h0c0,.4,0,.5.1.7h0v.8c.4,1.3.7,2.7,1,4,.3,1.1.6,2.2,1,3.3,5.9,17.6,19.7,31.4,37.3,37.3,1.1.4,2.2.7,3.3,1,1.3.3,2.6.7,4,.9h.6c0,.1,0,.1,0,.1h0s.6.1.6.1h.1c1.1.2,1.8,1.2,1.6,2.3-.1.8-.8,1.4-1.6,1.6h-.1s-.3,0-.3,0h-.3c0,0,0,0,0,0h0c-.2,0-.4,0-.6.1-1.3.3-2.7.6-4,.9-1.1.3-2.2.6-3.3,1-17.6,5.9-31.4,19.7-37.3,37.3-.4,1.1-.7,2.2-1,3.3-.4,1.3-.6,2.6-.9,4v.6c-.1,0-.1,0-.1,0h0c0,0,0,.3,0,.3v.4c0,0,0,.1,0,.1-.2,1.1-1.2,1.8-2.3,1.6-.8-.1-1.4-.8-1.6-1.6h0c0-.4,0-.5-.1-.7h0c0-.4,0-.6-.1-.8-.3-1.3-.6-2.7-.9-4-.3-1.1-.6-2.2-1-3.3-5.9-17.6-19.7-31.4-37.3-37.3-1.1-.4-2.2-.7-3.3-1"/>
    <path class="st1" d="M134.8,182.7c-1.3-.4-2.6-.6-4-.9h-.6c0-.1,0-.1,0-.1h0s-.6-.1-.6-.1h-.1c-1.1-.2-1.8-1.2-1.6-2.3.2-.8.8-1.4,1.6-1.6h.1s.6-.1.6-.1h0s0,0,0,0h.6c1.3-.4,2.7-.7,4-1,1.1-.3,2.2-.6,3.3-1,17.6-5.9,31.4-19.7,37.3-37.3.4-1.1.7-2.2,1-3.3.4-1.3.6-2.6.9-4,0-.2,0-.4.1-.6h0c0,0,0-.1,0-.1,0-.1,0-.3.1-.6h0c.2-1.2,1.2-1.9,2.3-1.7.8.1,1.4.8,1.6,1.6h0c0,.4,0,.5.1.7h0c0,0,0,.1,0,.1,0,.2,0,.4.1.6.3,1.3.6,2.7.9,4,.3,1.1.6,2.2,1,3.3,5.9,17.6,19.7,31.4,37.3,37.3,1.1.4,2.2.7,3.3,1,1.3.4,2.6.7,4,.9h.6c0,.1,0,.1,0,.1h0s.6.1.6.1h.1c1.1.2,1.8,1.2,1.6,2.3-.1.8-.8,1.4-1.6,1.6h-.1s-.3,0-.3,0h-.3c0,0,0,0,0,0h-.7c-1.3.4-2.7.7-4,1-1.1.3-2.2.6-3.3,1-17.6,5.9-31.4,19.7-37.3,37.3-.4,1.1-.7,2.2-1,3.3-.4,1.3-.6,2.6-.9,4,0,.2,0,.4-.1.6h0c0,0,0,.1,0,.1v.2s-.1.4-.1.4h0c-.2,1.2-1.2,1.9-2.3,1.7-.8-.1-1.4-.8-1.6-1.6h0c0-.4,0-.5-.1-.7h0c0,0,0-.1,0-.1,0-.2,0-.4-.1-.6-.3-1.3-.6-2.7-.9-4-.3-1.1-.6-2.2-1-3.3-5.9-17.6-19.7-31.4-37.3-37.3-1.1-.4-2.2-.7-3.3-1"/>
    <path class="st1" d="M265.8,182.7c-1.3-.4-2.6-.6-4-.9h-.6c0-.1,0-.1,0-.1h0s-.6-.1-.6-.1h-.1c-1.1-.2-1.8-1.2-1.6-2.3.1-.8.8-1.4,1.6-1.6h.1s.6-.1.6-.1h0s0,0,0,0c.2,0,.4,0,.6-.1,1.3-.3,2.7-.6,4-.9,1.1-.3,2.2-.6,3.3-1,17.6-5.9,31.4-19.7,37.3-37.3.4-1.1.7-2.2,1-3.3.4-1.3.6-2.6.9-4,0-.2,0-.4.1-.6h0c0,0,0-.1,0-.1,0-.1,0-.3.1-.6h0c.2-1.2,1.2-1.9,2.3-1.7.8.2,1.4.8,1.6,1.6h0c0,.4,0,.5.1.7h0c0,.1.1.8.1.8.3,1.3.6,2.7.9,4,.3,1.1.6,2.2,1,3.3,5.9,17.6,19.7,31.4,37.3,37.3,1.1.4,2.2.7,3.3,1,1.3.4,2.6.7,4,.9.2,0,.4,0,.6.1h.1s.6.1.6.1h.1c1.1.2,1.8,1.2,1.6,2.3-.1.8-.8,1.4-1.6,1.6h-.1s-.3,0-.3,0h-.3c0,0,0,0,0,0h-.7c-1.3.4-2.7.7-4,1-1.1.3-2.2.6-3.3,1-17.6,5.9-31.4,19.7-37.3,37.3-.4,1.1-.7,2.2-1,3.3-.4,1.3-.6,2.6-.9,4v.6c-.1,0-.1,0-.1,0h0c0,0,0,.3,0,.3v.4c0,0,0,.1,0,.1-.2,1.1-1.2,1.8-2.3,1.6-.8-.1-1.4-.8-1.6-1.6h0c0-.4,0-.5-.1-.7h0c0-.4,0-.6-.1-.8-.3-1.3-.6-2.7-.9-4-.3-1.1-.6-2.2-1-3.3-5.9-17.6-19.7-31.4-37.3-37.3-1.1-.4-2.2-.7-3.3-1"/>
  </g>
</svg>